<svg width="230" version="1.1" id="Layer_1" xmlns="http://www.w3.org/2000/svg" xmlns:xlink="http://www.w3.org/1999/xlink" x="0px" y="0px"
						 viewBox="0 0 657.1 142" style="enable-background:new 0 0 657.1 142;" xml:space="preserve">
					<g>
						<g>
							<path class="cls-fill cls-1" d="M178.9,61.9l6.5-5.7c2.4,2.3,5.4,3.7,8.7,3.7c3.6,0,4.8-0.7,4.8-2.1c0-1.9-2.2-1.9-7.9-3.4
								c-4.8-1.2-10.1-3.9-10.1-11.2c0-7.9,6.1-11.1,13.5-11.1c5.7,0,9.8,1.9,12.7,4.8l-5.9,6.3c-1.6-1.4-4.1-2.6-6.7-2.6
								c-2.5,0-3.8,0.7-3.8,2.1c0,2,2.2,2.2,7,3.3c5.1,1.1,11.5,3.5,11.5,10.9c0,6.4-3.4,11.7-14.4,11.7C186.7,68.5,182,65.5,178.9,61.9z
								"/>
							<path class="cls-fill cls-1" d="M236.8,59.4c4,0,7.1-1.6,8.8-2.8l6.3,6.8c-3.4,3-7.6,5.2-14.9,5.2c-12.5,0-20.5-7.6-20.5-18.3
								c0-10.6,8.5-18.1,19.3-18.1c12.6,0,19.4,9.4,18.5,21.6h-26.5C228.8,57.3,231.8,59.4,236.8,59.4z M243.1,47.3
								c-0.5-3.9-3-6.2-7.3-6.2c-4.3,0-7.3,2-8.2,6.2H243.1z"/>
							<path class="cls-fill cls-1" d="M258.2,32.9h12.2l4.9,10.4c1.6,3.5,2.9,9.3,2.9,9.3s1.1-5.7,2.7-9.3l4.8-10.4h11.2l-18.7,35.7h-1.1
								L258.2,32.9z"/>
							<path class="cls-fill cls-1" d="M320.7,59.4c4,0,7.1-1.6,8.8-2.8l6.3,6.8c-3.4,3-7.6,5.2-14.9,5.2c-12.5,0-20.5-7.6-20.5-18.3
								c0-10.6,8.5-18.1,19.3-18.1c12.6,0,19.4,9.4,18.5,21.6h-26.5C312.8,57.3,315.7,59.4,320.7,59.4z M327,47.3c-0.5-3.9-3-6.2-7.3-6.2
								s-7.3,2-8.2,6.2H327z"/>
							<path class="cls-fill cls-1" d="M347.4,32.9h11.1l-0.2,5.7c2.1-4.2,6.2-6.5,11.1-6.5c7.6,0,13.1,5.6,13.1,15.5v20.2h-11.1V48.4
								c0-3.9-1.9-6.2-5.8-6.2c-4.4,0-7.1,2.5-7.1,6.9v18.7h-11.1V32.9z"/>
							<path class="cls-fill cls-1" d="M391.4,50.2c0-10.8,7.2-18.1,15.7-18.1c5.6,0,8.7,2.2,10.9,5.7V8.6H429v59.2H418l0.2-5.1
								c-2,3.7-5.7,5.8-11,5.8C398.7,68.5,391.4,61,391.4,50.2z M418.3,50.2c0-5.2-3.1-8.4-7.9-8.4c-4.7,0-7.6,3.2-7.6,8.4
								c0,5.5,3,8.6,7.6,8.6C415.2,58.9,418.3,55.7,418.3,50.2z"/>
							<path class="cls-fill cls-1" d="M439.4,32.9h11.1l-0.2,6.3c2.5-5.7,6.6-7.1,10.3-7.1c2.3,0,4,0.7,5.4,1.4l-3.5,10.1c-1.4-0.7-2.7-1.1-4.3-1.1
								c-5,0-7.7,2.3-7.7,9.8v15.5h-11.1V32.9z"/>
							<path class="cls-fill cls-1" d="M491.1,59.4c4,0,7.1-1.6,8.8-2.8l6.3,6.8c-3.4,3-7.6,5.2-14.9,5.2c-12.5,0-20.5-7.6-20.5-18.3
								c0-10.6,8.5-18.1,19.3-18.1c12.6,0,19.4,9.4,18.5,21.6H482C483.1,57.3,486.1,59.4,491.1,59.4z M497.4,47.3c-0.5-3.9-3-6.2-7.3-6.2
								c-4.3,0-7.3,2-8.2,6.2H497.4z"/>
						</g>
						<g>
							<path class="cls-fill cls-middle" d="M91.8,111c0-6.6-3-9.1-8-9.1c-4.8,0-7.8,2.1-9.9,4.9l-3.5-3.2c3-4,7.4-6.6,13.9-6.6c7.6,0,13.3,4.4,13.3,13.9
								v20.8h-5.7l0.2-5.1c-2.3,3.4-5.8,5.7-11.2,5.7c-7.2,0-12.5-3.3-12.5-10.3c0-7,5.7-10.3,12.9-10.3h10.6V111z M81.7,116.2
								c-4.4,0-7.7,1.6-7.7,5.7c0,3.9,2.9,5.9,8.2,5.9c5.3,0,9.7-2.9,9.7-7.3v-4.3H81.7z M74.5,75.1h6.6l5.6,15.8h-4.5L74.5,75.1z"/>
						</g>
						<g>
							<path class="cls-fill cls-2" d="M180.1,124.5l4.4-2.5c2,3.3,4.9,5.7,9.8,5.7c4.6,0,7.2-2,7.2-5.1c0-3.7-3-4.5-8.9-6.2
								c-5.3-1.6-10.3-3.7-10.3-10.1c0-5.9,4.9-9.3,11.2-9.3c5.2,0,8.9,2.1,11.3,5.5l-3.9,3c-1.7-2.4-4.1-3.9-7.4-3.9
								c-3.7,0-5.9,1.7-5.9,4.3c0,3.2,2.1,4.1,8,5.8c5.7,1.6,11.2,3.9,11.2,10.4c0,5.7-3.9,10.1-12.4,10.1
								C187.1,132.4,182.3,128.8,180.1,124.5z"/>
							<path class="cls-fill cls-2" d="M216.4,114.8c0-9.9,7.9-17.7,18.1-17.7c10.1,0,17.9,7.8,17.9,17.7c0,9.9-7.8,17.6-17.9,17.6
								C224.2,132.4,216.4,124.7,216.4,114.8z M246.5,114.8c0-7.3-4.8-12.7-12.1-12.7c-7.3,0-12.2,5.4-12.2,12.7
								c0,7.3,4.9,12.7,12.2,12.7C241.6,127.5,246.5,122.1,246.5,114.8z"/>
							<path class="cls-fill cls-2" d="M262.9,83.9c0-2.4,2-4.1,4.1-4.1c2.1,0,4.1,1.7,4.1,4.1c0,2.4-2,4-4.1,4C264.8,87.9,262.9,86.3,262.9,83.9z
								 M264.1,97.8h5.7v34h-5.7V97.8z"/>
							<path class="cls-fill cls-2" d="M283.8,97.8h5.7l-0.2,6.4c2.2-4.6,5.9-7.1,10.7-7.1c5.3,0,8.8,2.9,10.3,7.1c2.5-4.6,6.8-7.1,11.7-7.1
								c7.5,0,12.1,4.9,12.1,13v21.7h-5.7v-21c0-5.4-2.1-8.5-7.5-8.5c-5.4,0-9.1,3.7-9.1,10.4v19h-5.7v-21c0-5.4-2.1-8.5-7.4-8.5
								c-5.4,0-9.2,3.7-9.2,10.4v19h-5.7V97.8z"/>
							<path class="cls-fill cls-2" d="M363.8,127.6c5.1,0,8.5-2.1,10.7-4.5l3.5,3.4c-3.1,3.5-7.6,5.9-14.3,5.9c-11.2,0-18.4-7.7-18.4-17.6
								c0-9.9,7.6-17.7,17.6-17.7c10.9,0,17.5,8.4,17.1,19.6h-28.9C351.9,123.1,356.3,127.6,363.8,127.6z M374.3,112.3
								c-0.5-5.8-4.2-10.4-11.3-10.4c-6.5,0-10.8,4.2-11.7,10.4H374.3z M362.2,75.2h0.7l10.5,15.8h-5l-5.8-8.1l-5.9,8.1h-5L362.2,75.2z"
								/>
							<path class="cls-fill cls-2" d="M391.5,97.8h5.7l-0.2,6.4c2.2-4.6,5.9-7.1,10.7-7.1c5.3,0,8.8,2.9,10.3,7.1c2.5-4.6,6.8-7.1,11.7-7.1
								c7.5,0,12.1,4.9,12.1,13v21.7h-5.7v-21c0-5.4-2.1-8.5-7.5-8.5c-5.4,0-9.1,3.7-9.1,10.4v19h-5.7v-21c0-5.4-2.1-8.5-7.4-8.5
								c-5.4,0-9.2,3.7-9.2,10.4v19h-5.7V97.8z"/>
							<path class="cls-fill cls-2" d="M471.5,127.6c5.1,0,8.5-2.1,10.7-4.5l3.5,3.4c-3.1,3.5-7.6,5.9-14.3,5.9c-11.2,0-18.4-7.7-18.4-17.6
								c0-9.9,7.6-17.7,17.6-17.7c10.9,0,17.5,8.4,17.1,19.6h-28.9C459.6,123.1,464.1,127.6,471.5,127.6z M482,112.3
								c-0.5-5.8-4.2-10.4-11.3-10.4c-6.5,0-10.8,4.2-11.7,10.4H482z"/>
							<path class="cls-fill cls-2" d="M496.2,127.8c0-2.5,2.1-4.4,4.4-4.4c2.4,0,4.4,1.9,4.4,4.4c0,2.5-2.1,4.5-4.4,4.5
								C498.4,132.3,496.2,130.4,496.2,127.8z"/>
							<path class="cls-fill cls-2" d="M512.5,114.8c0-9.9,7.6-17.7,17.6-17.7c6.1,0,10.3,2.3,13.4,6.1l-4.1,3.4c-2.1-2.7-5-4.3-9.3-4.3
								c-7.2,0-11.7,5.4-11.7,12.6c0,7.2,4.5,12.6,11.7,12.6c4.7,0,7.6-1.9,9.8-4.4l3.9,3.4c-3.2,3.9-7.4,6.1-13.7,6.1
								C520.1,132.4,512.5,124.7,512.5,114.8z"/>
							<path class="cls-fill cls-2" d="M552,114.8c0-9.9,7.9-17.7,18.1-17.7c10.1,0,17.9,7.8,17.9,17.7c0,9.9-7.8,17.6-17.9,17.6
								C559.9,132.4,552,124.7,552,114.8z M582.1,114.8c0-7.3-4.8-12.7-12.1-12.7c-7.3,0-12.2,5.4-12.2,12.7c0,7.3,4.9,12.7,12.2,12.7
								C577.3,127.5,582.1,122.1,582.1,114.8z"/>
							<path class="cls-fill cls-2" d="M599.6,97.8h5.7l-0.2,6.4c2.2-4.6,5.9-7.1,10.7-7.1c5.3,0,8.8,2.9,10.3,7.1c2.5-4.6,6.8-7.1,11.7-7.1
								c7.5,0,12.1,4.9,12.1,13v21.7h-5.7v-21c0-5.4-2.1-8.5-7.5-8.5c-5.4,0-9.1,3.7-9.1,10.4v19h-5.7v-21c0-5.4-2.1-8.5-7.4-8.5
								c-5.4,0-9.2,3.7-9.2,10.4v19h-5.7V97.8z"/>
						</g>
						<g>
							<polygon class="cls-fill cls-left" points="160.5,132.4 147.3,132.4 147.3,74.6 82.9,21.1 91.3,10.9 160.5,68.4 		"/>
							<g>
								<polygon class="cls-fill cls-right" points="20.4,132.4 7.2,132.4 7.2,68 52.2,30.4 60.6,40.6 20.4,74.2 			"/>
							</g>
						</g>
					</g>
					</svg>